HIERARCHY
ROOT Hips
{
	OFFSET 0.000000 8.830580 0.000000
	CHANNELS 6 Xposition Yposition Zposition Zrotation Yrotation Xrotation 
	JOINT Spine
	{
		OFFSET 0.000000 0.010000 0.000000
		CHANNELS 3 Zrotation Yrotation Xrotation
		JOINT Spine1
		{
			OFFSET 0.000000 2.459130 0.000000
			CHANNELS 3 Zrotation Yrotation Xrotation
			JOINT Neck
			{
				OFFSET 0.000000 2.484630 0.000000
				CHANNELS 3 Zrotation Yrotation Xrotation
				JOINT Head_virtual
				{
					OFFSET 0.000000 0.000000 0.000000
					CHANNELS 3 Zrotation Yrotation Xrotation
					JOINT Head
					{
						OFFSET 0.000000 0.927525 0.000000
						CHANNELS 3 Zrotation Yrotation Xrotation
						End Site
						{
							OFFSET 0.000000 0.000000 0.000000
						}
					}
				}
				JOINT LeftUpArm_virtual
				{
					OFFSET 0.000000 0.000000 0.000000
					CHANNELS 3 Zrotation Yrotation Xrotation
					JOINT LeftUpArm
					{
						OFFSET 1.248820 0.000000 0.000000
						CHANNELS 3 Zrotation Yrotation Xrotation
						JOINT LeftForeArm
						{
							OFFSET 2.597580 0.000000 0.000000
							CHANNELS 3 Zrotation Yrotation Xrotation
							JOINT LeftHand
							{
								OFFSET 2.455420 0.000000 0.000000
								CHANNELS 3 Zrotation Yrotation Xrotation
								End Site
								{
									OFFSET 0.000000 0.000000 0.000000
								}
							}
						}
					}
				}
				JOINT RightUpArm_virtual
				{
					OFFSET -0.000000 -0.000000 -0.000000
					CHANNELS 3 Zrotation Yrotation Xrotation
					JOINT RightUpArm
					{
						OFFSET -1.248820 -0.000000 -0.000000
						CHANNELS 3 Zrotation Yrotation Xrotation
						JOINT RightForeArm
						{
							OFFSET -2.597580 -0.000000 -0.000000
							CHANNELS 3 Zrotation Yrotation Xrotation
							JOINT RightHand
							{
								OFFSET -2.455420 -0.000000 -0.000000
								CHANNELS 3 Zrotation Yrotation Xrotation
								End Site
								{
									OFFSET 0.000000 0.000000 0.000000
								}
							}
						}
					}
				}
			}
		}
	}
	JOINT LeftUpLeg
	{
		OFFSET 1.271939 0.000000 0.000000
		CHANNELS 3 Zrotation Yrotation Xrotation
		JOINT LeftLowLeg
		{
			OFFSET 0.000000 -4.342910 0.000000
			CHANNELS 3 Zrotation Yrotation Xrotation
			JOINT LeftFoot
			{
				OFFSET 0.000000 -4.487670 0.000000
				CHANNELS 3 Zrotation Yrotation Xrotation
				JOINT LeftToeBase
				{
					OFFSET 0.000000 0.000000 1.515070
					CHANNELS 3 Zrotation Yrotation Xrotation
					End Site
					{
						OFFSET 0.000000 0.000000 0.000000
					}
				}
			}
		}
	}
	JOINT RightUpLeg
	{
		OFFSET -1.271939 0.000000 0.000000
		CHANNELS 3 Zrotation Yrotation Xrotation
		JOINT RightLowLeg
		{
			OFFSET 0.000000 -4.342910 0.000000
			CHANNELS 3 Zrotation Yrotation Xrotation
			JOINT RightFoot
			{
				OFFSET 0.000000 -4.487670 0.000000
				CHANNELS 3 Zrotation Yrotation Xrotation
				JOINT RightToeBase
				{
					OFFSET 0.000000 0.000000 1.515070
					CHANNELS 3 Zrotation Yrotation Xrotation
					End Site
					{
						OFFSET 0.000000 0.000000 0.000000
					}
				}
			}
		}
	}
}
MOTION
Frames: 8
Frame Time: 0.041667
-14.056924 4.894380 34.236189 166.280807 0.871067 -176.156300 -1.082817 -3.442267 4.494626 -5.995659 -6.493230 3.181862 0.000000 0.000000 0.000000 3.826658 18.866004 -5.110583 -11.807063 -26.249806 -75.676989 -21.150801 1.897710 5.546997 -42.058201 -20.903999 9.784730 -180.000000 -79.259003 180.000000 40.251099 0.400382 20.262300 17.449301 -2.582760 -2.682007 33.251400 33.661499 -16.710999 180.000000 63.945000 180.000000 -18.776400 5.117920 5.431890 -21.138447 8.499749 -85.920632 0.000000 0.000000 117.545998 -3.627561 -12.129093 -5.423010 0.000000 0.000000 -36.737900 -1.549645 -21.602715 -20.546529 0.000000 0.000000 125.445999 46.426439 7.800223 -12.187879 0.000000 0.000000 -81.738403 
-14.047875 4.898480 34.221336 166.219594 0.954033 -176.243118 -1.206420 -3.402198 4.103104 -6.236273 -6.514254 3.080558 0.000000 0.000000 0.000000 4.429765 18.758694 -4.212116 -12.169657 -26.196013 -75.482626 -21.184000 1.977620 5.437012 -41.881599 -21.118601 10.396600 180.000000 -79.348999 -180.000000 39.748199 0.338884 20.285400 16.989401 -2.694100 -3.395996 32.894901 35.218700 -16.735992 180.000000 63.116997 180.000000 -18.649799 5.781700 6.285210 -21.023264 8.868993 -85.680440 0.000000 0.000000 117.567001 -3.847310 -12.873063 -5.509282 0.000000 0.000000 -36.803499 -1.578724 -21.548114 -20.348100 0.000000 0.000000 125.194000 45.240165 7.193345 -11.860894 0.000000 0.000000 -81.737396 
-14.037990 4.904949 34.206112 166.114753 0.999223 -176.469105 -1.374497 -3.364035 3.873595 -6.541275 -6.549053 2.950369 0.000000 0.000000 0.000000 5.228418 18.632646 -3.260226 -12.539994 -26.101614 -75.374294 -21.245001 2.082010 5.515991 -41.613499 -21.440001 11.007200 180.000000 -79.375000 -180.000000 39.723999 0.461639 20.372999 16.666201 -2.800680 -3.928009 32.398998 36.749401 -16.954010 -180.000000 62.714996 -180.000000 -18.597200 6.709030 7.223230 -20.869045 9.206026 -85.269870 0.000000 0.000000 117.551002 -3.994743 -13.574569 -5.553502 0.000000 0.000000 -36.914101 -1.734333 -21.499129 -19.886565 0.000000 0.000000 124.950996 46.071052 7.322832 -12.053670 0.000000 0.000000 -81.735001 
-14.028492 4.911368 34.190849 166.050478 1.016998 -176.680978 -1.495953 -3.298034 3.560925 -6.908339 -6.534565 2.917208 0.000000 0.000000 0.000000 6.082252 18.544811 -2.311526 -12.743768 -25.960370 -75.304046 -21.281500 2.102130 5.661011 -41.383900 -21.738800 11.536800 180.000000 -79.376999 -180.000000 39.546600 0.579083 20.350700 16.341101 -2.874020 -4.239990 31.861500 38.133999 -17.507996 180.000000 62.668999 180.000000 -18.390800 7.525290 8.089830 -20.690358 9.467466 -84.905538 0.000000 0.000000 117.556000 -4.312939 -14.241052 -5.499087 0.000000 0.000000 -37.079300 -1.864440 -21.470243 -19.425128 0.000000 0.000000 124.642998 46.654518 7.275153 -12.034214 0.000000 0.000000 -81.733299 
-14.016531 4.916480 34.176786 165.992076 1.009436 -176.746269 -1.664427 -3.214426 3.159776 -7.209372 -6.524474 2.799073 0.000000 0.000000 0.000000 6.938068 18.442852 -1.319924 -12.910647 -25.813239 -75.185727 -21.344900 2.064610 5.670013 -41.164501 -21.777599 12.196200 180.000000 -79.333000 180.000000 39.368099 0.499198 20.349899 16.008301 -3.009720 -4.575989 31.546700 39.342602 -17.899994 -180.000000 63.039001 -180.000000 -18.328899 8.480010 8.971750 -20.539859 9.657125 -84.735495 0.000000 0.000000 117.607002 -4.628649 -14.772654 -5.343724 0.000000 0.000000 -37.150999 -1.892989 -21.468976 -19.126497 0.000000 0.000000 124.383003 46.459901 7.276200 -11.989567 0.000000 0.000000 -81.732201 
-14.003097 4.919924 34.163242 165.956421 1.039378 -176.760029 -1.860655 -3.074884 2.693991 -7.461197 -6.454813 2.704457 0.000000 0.000000 0.000000 7.841895 18.269443 -0.386097 -13.113610 -25.624087 -74.936435 -21.367901 2.076070 5.787994 -40.997700 -21.937201 12.845800 -180.000000 -79.338997 180.000000 39.097599 0.423729 20.217600 15.663500 -3.184040 -4.921997 31.407000 40.341702 -18.141998 -180.000000 63.735001 -180.000000 -18.545401 9.194100 9.842520 -20.387064 9.845113 -84.665958 0.000000 0.000000 117.678001 -4.842156 -15.156453 -5.183058 0.000000 0.000000 -37.289499 -1.847267 -21.412319 -18.930839 0.000000 0.000000 124.149002 46.265364 7.247973 -11.936265 0.000000 0.000000 -81.731201 
-13.989084 4.923334 34.147192 165.926512 0.943482 -176.830002 -1.990344 -3.034419 2.271066 -7.835722 -6.478336 2.612835 0.000000 0.000000 0.000000 8.816922 18.094109 0.607672 -13.437493 -25.392935 -74.699572 -21.402500 2.188210 5.765015 -40.812599 -21.945601 13.596500 -180.000000 -79.334999 180.000000 39.183300 0.335126 20.908100 15.456900 -3.257490 -5.229004 31.355700 41.110802 -18.316986 180.000000 64.703003 180.000000 -18.606100 9.567950 10.852000 -20.204038 9.917447 -84.504551 0.000000 0.000000 117.749001 -5.021217 -15.472990 -5.002341 0.000000 0.000000 -37.449800 -1.794517 -21.625497 -18.666535 0.000000 0.000000 123.929001 39.580106 4.203411 -9.301440 0.000000 0.000000 -80.474899 
-13.974689 4.924879 34.133270 165.957925 0.852606 -176.846282 -2.129464 -2.929928 1.872068 -8.054219 -6.447081 2.443724 0.000000 0.000000 0.000000 9.634821 17.916411 1.480756 -13.666002 -25.157926 -74.315291 -21.438801 2.137090 5.782990 -40.712502 -21.785101 14.297400 180.000000 -79.269997 -180.000000 39.225201 0.436414 21.184799 15.198900 -3.446740 -5.476990 31.554800 41.675900 -18.403992 180.000000 65.869003 180.000000 -18.697100 9.562130 10.558200 -19.982981 9.941976 -84.424524 0.000000 0.000000 117.842003 -5.156999 -15.689322 -4.907881 0.000000 0.000000 -37.617001 -1.683526 -21.670710 -18.439259 0.000000 0.000000 123.684998 39.531251 4.181822 -9.205019 0.000000 0.000000 -81.828598 
